<svg width="303" height="169" viewBox="0 0 303 169" fill="none" xmlns="http://www.w3.org/2000/svg">
<path fill-rule="evenodd" clip-rule="evenodd" d="M151.176 17.9355L173.697 42.0515L167.076 49.1403L152.129 33.1355L143.954 41.8902L190.301 91.5202V41.8927L151.179 0L123.844 29.2701C123.844 29.2701 129.312 36.4144 137.738 32.1181L151.176 17.9371V17.9355Z" fill="#373435"/>
<path fill-rule="evenodd" clip-rule="evenodd" d="M151.219 99.0946L128.698 74.9794L135.318 67.8898L150.265 83.8954L158.441 75.1407L112.093 25.5107V75.1382L151.215 117.031L178.55 87.7616C178.55 87.7616 173.082 80.6174 164.656 84.9137L151.217 99.0946H151.219Z" fill="#1475A2"/>
<path d="M0.000824958 168.239V167.72H0.806024C1.70353 167.72 2.34554 167.461 2.73372 166.947C2.96695 166.645 3.07986 165.952 3.07986 164.863V152.538C3.07986 151.337 2.93316 150.589 2.63646 150.3C2.22604 149.887 1.61617 149.681 0.805199 149.681H0V149.163H8.7352C11.9436 149.163 14.3807 149.484 16.0496 150.132C17.7234 150.78 19.0684 151.857 20.0846 153.37C21.1049 154.868 21.6192 156.611 21.6192 158.601C21.6192 160.008 21.3654 161.305 20.8519 162.487C20.3385 163.668 19.5827 164.681 18.5723 165.531C17.5676 166.382 16.3092 167.044 14.8067 167.525C13.2994 168 11.5653 168.24 9.58902 168.24H0L0.000824958 168.239ZM6.12675 166.866C7.44539 167.129 8.57449 167.259 9.50331 167.259C10.7132 167.259 11.8423 167.057 12.884 166.659C13.9216 166.261 14.8232 165.694 15.5806 164.958C16.3413 164.219 16.9413 163.325 17.374 162.278C17.8058 161.226 18.0218 160.05 18.0218 158.743C18.0218 157.427 17.8058 156.245 17.3797 155.198C16.952 154.145 16.3586 153.252 15.5905 152.513C14.8232 151.778 13.9109 151.211 12.8527 150.817C11.7879 150.423 10.6324 150.226 9.37309 150.226C8.89673 150.226 8.38988 150.26 7.85501 150.332C7.31436 150.403 6.73663 150.504 6.12594 150.634V166.864L6.12675 166.866ZM34.2147 150.198V157.72H38.9412C39.6269 157.72 40.1841 157.668 40.611 157.556C41.0428 157.45 41.3774 157.282 41.6206 157.051C41.8629 156.821 42.0318 156.533 42.1291 156.188C42.2205 155.841 42.2856 155.428 42.3186 154.953H42.9021V161.581H42.3186C42.2428 161.115 42.1735 160.735 42.0969 160.443C42.0211 160.149 41.9461 159.934 41.8752 159.803C41.7771 159.634 41.6593 159.491 41.5076 159.366C41.3618 159.237 41.1722 159.131 40.9406 159.035C40.7074 158.943 40.4272 158.871 40.0975 158.828C39.7678 158.78 39.3846 158.755 38.9421 158.755H34.2155V165.057C34.2155 165.893 34.2592 166.411 34.34 166.609C34.3828 166.69 34.4372 166.773 34.5015 166.85C34.5609 166.922 34.6581 166.985 34.7776 167.037C34.8963 167.089 35.0587 167.128 35.2523 167.158C35.4468 167.186 35.6957 167.201 35.9866 167.201H39.6277C40.2549 167.201 40.7733 167.186 41.1887 167.152C41.6041 167.118 41.9725 167.061 42.2799 166.984C42.5931 166.902 42.8691 166.787 43.1073 166.643C43.3447 166.499 43.5927 166.311 43.8573 166.086C44.1812 165.807 44.5166 165.442 44.857 165.005C45.1916 164.564 45.532 164.044 45.8674 163.454H46.4995L44.6518 168.237H28.0888V167.718H28.8511C29.0514 167.718 29.2615 167.699 29.489 167.661C29.7099 167.622 29.9151 167.565 30.1154 167.479C30.3099 167.397 30.4879 167.292 30.6453 167.162C30.8019 167.038 30.9148 166.888 30.9799 166.721C31.1035 166.428 31.1695 165.813 31.1695 164.875V152.479C31.1695 151.278 31.0343 150.534 30.759 150.241C30.375 149.866 29.7429 149.68 28.8519 149.68H28.0896V149.161H44.6526V153.339H44.2636C44.1507 152.83 44.0312 152.412 43.9175 152.086C43.7996 151.759 43.6694 151.485 43.5186 151.269C43.3727 151.053 43.2046 150.881 43.0158 150.756C42.8222 150.626 42.5947 150.511 42.3351 150.41C41.9032 150.271 41.1582 150.198 40.1041 150.198H34.2164H34.2147ZM66.6674 148.728V155.327H66.0839C65.8951 154.059 65.5548 153.051 65.057 152.302C64.8196 151.927 64.5172 151.586 64.1554 151.288C63.7927 150.986 63.3988 150.731 62.9727 150.52C62.545 150.308 62.0975 150.144 61.617 150.029C61.1406 149.909 60.6601 149.852 60.1747 149.852C59.6398 149.852 59.1429 149.933 58.678 150.096C58.2141 150.26 57.8143 150.48 57.4731 150.75C57.1336 151.024 56.869 151.336 56.6795 151.685C56.4907 152.036 56.3943 152.402 56.3943 152.776C56.3943 153.299 56.5287 153.761 56.8047 154.15C57.0742 154.538 57.4525 154.894 57.9338 155.226C58.4094 155.552 58.9714 155.868 59.6192 156.181C60.2678 156.488 60.97 156.825 61.7266 157.18C62.5746 157.583 63.3848 157.978 64.1521 158.361C64.9193 158.745 65.5943 159.169 66.177 159.634C66.7605 160.095 67.2253 160.628 67.5764 161.223C67.9217 161.819 68.0956 162.53 68.0956 163.365C68.0956 164.076 67.9275 164.758 67.5979 165.397C67.2641 166.041 66.8042 166.603 66.2042 167.087C65.61 167.568 64.8971 167.952 64.0705 168.24C63.2438 168.524 62.3365 168.668 61.3475 168.668C60.9741 168.668 60.6609 168.663 60.3964 168.654C60.131 168.644 59.8772 168.625 59.6398 168.591C59.3967 168.557 59.1429 168.504 58.8898 168.437C58.6302 168.365 58.3228 168.268 57.9602 168.149C57.7113 168.062 57.4517 167.986 57.1871 167.919C56.9226 167.847 56.6786 167.789 56.4635 167.742C56.2418 167.694 56.0523 167.66 55.9006 167.631C55.744 167.602 55.6468 167.588 55.6097 167.588C55.3443 167.588 55.1342 167.66 54.9825 167.799C54.8317 167.939 54.718 168.227 54.643 168.669H54.0587V162.127H54.643C54.7773 162.813 54.9397 163.409 55.1235 163.923C55.3064 164.432 55.5174 164.86 55.749 165.21C55.9822 165.547 56.2789 165.859 56.6457 166.152C57.0182 166.445 57.4294 166.695 57.8877 166.906C58.3467 167.117 58.8388 167.281 59.3728 167.397C59.9027 167.517 60.4483 167.574 61.0046 167.574C61.6681 167.574 62.2631 167.488 62.7922 167.32C63.3155 167.151 63.7647 166.926 64.1323 166.637C64.5048 166.354 64.7858 166.019 64.9803 165.639C65.174 165.259 65.2721 164.866 65.2721 164.453C65.2721 163.843 65.1311 163.329 64.8443 162.911C64.5641 162.493 64.1801 162.123 63.6996 161.792C63.2249 161.465 62.6678 161.152 62.0307 160.85C61.3928 160.552 60.7228 160.211 60.0165 159.836C59.2162 159.414 58.4506 159.015 57.7039 158.635C56.9638 158.256 56.3102 157.838 55.7432 157.382C55.1713 156.93 54.7172 156.411 54.3768 155.83C54.0364 155.25 53.8642 154.552 53.8642 153.746C53.8642 153.073 54.0199 152.43 54.3397 151.82C54.6529 151.211 55.0897 150.677 55.646 150.216C56.2081 149.76 56.8666 149.395 57.6289 149.125C58.3912 148.861 59.2286 148.727 60.1294 148.727C61.2486 148.727 62.4527 148.977 63.7433 149.472C64.3152 149.708 64.7323 149.823 64.991 149.823C65.2663 149.823 65.488 149.751 65.666 149.606C65.8399 149.462 65.98 149.169 66.0822 148.727H66.6657L66.6674 148.728ZM84.4493 167.72V168.239H75.2435V167.72H76.0059C76.9075 167.72 77.5503 167.489 77.9451 167.029C78.1981 166.741 78.3234 166.014 78.3234 164.862V152.537C78.3234 152.086 78.3127 151.721 78.2912 151.437C78.2698 151.159 78.2319 150.924 78.1726 150.742C78.1132 150.559 78.0324 150.415 77.9187 150.314C77.8108 150.208 77.6591 150.112 77.4654 150.015C77.0006 149.79 76.5144 149.68 76.0075 149.68H75.2452V149.161H84.451V149.68H83.6779C82.7919 149.68 82.154 149.91 81.765 150.371C81.5005 150.659 81.3711 151.38 81.3711 152.537V164.862C81.3711 165.313 81.3818 165.679 81.4032 165.961C81.4247 166.24 81.4626 166.471 81.5219 166.649C81.5813 166.827 81.6686 166.971 81.7815 167.081C81.8944 167.187 82.051 167.287 82.2397 167.383C82.6939 167.609 83.1694 167.72 83.6771 167.72H84.4501H84.4493ZM109.712 148.728L110.263 154.751H109.712C109.161 153.257 108.437 152.124 107.54 151.355C106.249 150.255 104.606 149.708 102.614 149.708C99.875 149.708 97.7948 150.669 96.369 152.594C95.1748 154.213 94.5748 156.149 94.5748 158.392C94.5748 160.212 94.9696 161.869 95.7641 163.373C96.1152 164.036 96.5306 164.636 97.0168 165.175C97.5031 165.708 98.0486 166.164 98.6544 166.538C99.2527 166.913 99.9063 167.206 100.609 167.412C101.312 167.619 102.057 167.72 102.84 167.72C103.634 167.72 104.396 167.629 105.131 167.451C105.865 167.268 106.584 167.005 107.28 166.654V161.159C107.28 160.673 107.259 160.28 107.216 159.987C107.173 159.694 107.114 159.458 107.037 159.28C106.956 159.103 106.848 158.968 106.719 158.872C106.589 158.781 106.438 158.694 106.265 158.622C105.931 158.463 105.325 158.382 104.461 158.382V157.835H112.758V158.382H112.364C112.007 158.382 111.699 158.416 111.45 158.488C111.197 158.555 110.987 158.689 110.825 158.886C110.662 159.083 110.544 159.361 110.468 159.726C110.399 160.091 110.36 160.566 110.36 161.152V166.97C109.728 167.272 109.112 167.531 108.524 167.743C107.934 167.955 107.334 168.127 106.725 168.267C106.12 168.402 105.499 168.508 104.856 168.57C104.218 168.637 103.543 168.67 102.825 168.67C98.6767 168.67 95.5218 167.489 93.3716 165.126C91.7562 163.353 90.9461 161.313 90.9461 158.993C90.9461 158.349 91.0219 157.701 91.1678 157.047C91.3145 156.394 91.5304 155.76 91.7999 155.14C92.076 154.52 92.4156 153.93 92.8153 153.362C93.2142 152.795 93.6642 152.272 94.1603 151.792C95.2193 150.745 96.4242 149.972 97.78 149.472C99.1365 148.977 100.647 148.727 102.317 148.727C102.814 148.727 103.247 148.742 103.619 148.775C103.987 148.809 104.348 148.862 104.693 148.934C105.044 149.001 105.407 149.098 105.796 149.213C106.179 149.333 106.639 149.472 107.161 149.64C107.746 149.837 108.14 149.938 108.351 149.938C108.556 149.938 108.723 149.857 108.87 149.693C109.009 149.529 109.096 149.207 109.129 148.727H109.712V148.728ZM117.38 149.161H123.181L136.309 163.483V152.47C136.309 151.293 136.162 150.563 135.866 150.27C135.461 149.876 134.845 149.679 134.007 149.679H133.262V149.16H140.749V149.679H139.986C139.079 149.679 138.431 149.924 138.053 150.409C137.821 150.702 137.702 151.388 137.702 152.465V168.555H137.118L122.987 153.195V164.934C122.987 166.106 123.127 166.841 123.414 167.129C123.808 167.523 124.424 167.72 125.272 167.72H126.034V168.239H118.546V167.72H119.293C120.211 167.72 120.864 167.475 121.243 166.99C121.475 166.697 121.594 166.01 121.594 164.934V151.663C121.282 151.336 121.015 151.072 120.805 150.876C120.594 150.679 120.395 150.515 120.205 150.391C120.016 150.265 119.811 150.16 119.59 150.078C119.369 150.001 119.094 149.91 118.769 149.804C118.466 149.723 118.001 149.68 117.381 149.68V149.162L117.38 149.161ZM176.843 148.728V155.327H176.26C176.07 154.059 175.73 153.051 175.232 152.302C174.995 151.927 174.692 151.586 174.331 151.288C173.97 150.986 173.574 150.731 173.148 150.52C172.721 150.308 172.273 150.144 171.792 150.029C171.317 149.909 170.836 149.852 170.35 149.852C169.816 149.852 169.318 149.933 168.853 150.096C168.388 150.26 167.99 150.48 167.648 150.75C167.309 151.024 167.043 151.336 166.855 151.685C166.666 152.036 166.569 152.402 166.569 152.776C166.569 153.299 166.703 153.761 166.979 154.15C167.249 154.538 167.628 154.894 168.109 155.226C168.583 155.552 169.145 155.868 169.794 156.181C170.442 156.488 171.144 156.825 171.901 157.18C172.749 157.583 173.559 157.978 174.326 158.361C175.094 158.745 175.769 159.169 176.352 159.634C176.937 160.095 177.401 160.628 177.752 161.223C178.098 161.819 178.271 162.53 178.271 163.365C178.271 164.076 178.103 164.758 177.773 165.397C177.438 166.041 176.979 166.603 176.379 167.087C175.785 167.568 175.072 167.952 174.246 168.24C173.419 168.524 172.512 168.668 171.523 168.668C171.15 168.668 170.837 168.663 170.572 168.654C170.307 168.644 170.053 168.625 169.816 168.591C169.572 168.557 169.318 168.504 169.064 168.437C168.805 168.365 168.497 168.268 168.135 168.149C167.887 168.062 167.628 167.986 167.362 167.919C167.099 167.847 166.856 167.789 166.639 167.742C166.417 167.694 166.228 167.66 166.077 167.631C165.919 167.602 165.823 167.588 165.785 167.588C165.52 167.588 165.309 167.66 165.159 167.799C165.007 167.939 164.893 168.227 164.818 168.669H164.234V162.127H164.818C164.953 162.813 165.115 163.409 165.299 163.923C165.482 164.432 165.693 164.86 165.924 165.21C166.157 165.547 166.454 165.859 166.821 166.152C167.193 166.445 167.605 166.695 168.064 166.906C168.523 167.117 169.015 167.281 169.549 167.397C170.079 167.517 170.624 167.574 171.181 167.574C171.845 167.574 172.439 167.488 172.969 167.32C173.493 167.151 173.942 166.926 174.309 166.637C174.682 166.354 174.963 166.019 175.157 165.639C175.351 165.259 175.449 164.866 175.449 164.453C175.449 163.843 175.308 163.329 175.021 162.911C174.74 162.493 174.357 162.123 173.876 161.792C173.401 161.465 172.844 161.152 172.207 160.85C171.57 160.552 170.9 160.211 170.193 159.836C169.393 159.414 168.627 159.015 167.881 158.635C167.141 158.256 166.487 157.838 165.919 157.382C165.347 156.93 164.893 156.411 164.554 155.83C164.213 155.25 164.041 154.552 164.041 153.746C164.041 153.073 164.198 152.43 164.516 151.82C164.829 151.211 165.267 150.677 165.824 150.216C166.385 149.76 167.044 149.395 167.807 149.125C168.568 148.861 169.405 148.727 170.307 148.727C171.426 148.727 172.63 148.977 173.922 149.472C174.493 149.708 174.91 149.823 175.169 149.823C175.445 149.823 175.667 149.751 175.845 149.606C176.017 149.462 176.158 149.169 176.261 148.727H176.843L176.843 148.728ZM203.375 149.161V153.628H203.019C202.933 153.032 202.792 152.527 202.598 152.11C202.404 151.696 202.144 151.36 201.831 151.106C201.512 150.846 201.123 150.664 200.67 150.544C200.216 150.428 199.686 150.371 199.082 150.371H196.051V164.934C196.051 166.106 196.191 166.841 196.478 167.129C196.866 167.523 197.483 167.72 198.325 167.72H199.065V168.239H189.957V167.72H190.72C191.628 167.72 192.275 167.475 192.653 166.99C192.885 166.697 193.004 166.014 193.004 164.934V150.371H190.428C189.779 150.371 189.207 150.414 188.726 150.496C188.24 150.582 187.829 150.742 187.494 150.972C187.154 151.207 186.883 151.539 186.673 151.967C186.463 152.394 186.306 152.946 186.198 153.628H185.583V149.162H203.376L203.375 149.161ZM224.452 149.68V149.161H232.036V149.68H231.232C230.389 149.68 229.741 149.991 229.288 150.621C229.066 150.924 228.958 151.601 228.958 152.647V160.395C228.958 162.298 228.742 163.787 228.309 164.858C228.033 165.54 227.644 166.125 227.142 166.611C226.635 167.091 226.051 167.49 225.387 167.797C224.723 168.11 223.993 168.335 223.195 168.484C222.4 168.627 221.573 168.699 220.709 168.699C218.381 168.699 216.604 168.34 215.382 167.613C214.61 167.168 214.016 166.687 213.6 166.187C213.184 165.684 212.881 165.131 212.687 164.526C212.493 163.921 212.379 163.248 212.346 162.513C212.313 161.774 212.298 160.938 212.298 160.001V152.537C212.298 151.946 212.255 151.461 212.163 151.086C212.076 150.711 211.935 150.418 211.746 150.211C211.558 150.005 211.314 149.866 211.028 149.789C210.735 149.717 210.391 149.679 209.99 149.679H209.186V149.16H218.455V149.679H217.634C217.126 149.679 216.721 149.741 216.419 149.871C216.11 149.996 215.879 150.183 215.721 150.423C215.565 150.668 215.462 150.972 215.413 151.326C215.365 151.682 215.343 152.086 215.343 152.537V160.855C215.343 161.326 215.359 161.793 215.392 162.253C215.424 162.709 215.483 163.156 215.581 163.583C215.673 164.006 215.802 164.414 215.964 164.794C216.132 165.174 216.343 165.523 216.608 165.842C217.018 166.35 217.569 166.75 218.255 167.047C218.946 167.34 219.826 167.488 220.902 167.488C221.593 167.488 222.258 167.416 222.895 167.273C223.533 167.124 224.116 166.922 224.652 166.668C225.182 166.408 225.64 166.101 226.03 165.751C226.418 165.401 226.715 165.011 226.915 164.588C227.325 163.734 227.53 162.292 227.53 160.266V152.537C227.53 151.336 227.385 150.592 227.088 150.299C226.677 149.886 226.067 149.68 225.257 149.68H224.452V149.68ZM237.534 168.239V167.72H238.338C239.236 167.72 239.878 167.461 240.267 166.947C240.499 166.645 240.613 165.952 240.613 164.863V152.538C240.613 151.337 240.466 150.589 240.17 150.3C239.759 149.887 239.149 149.681 238.338 149.681H237.534V149.163H246.268C249.477 149.163 251.914 149.484 253.582 150.132C255.257 150.78 256.602 151.857 257.617 153.37C258.638 154.868 259.152 156.611 259.152 158.601C259.152 160.008 258.897 161.305 258.384 162.487C257.87 163.668 257.114 164.681 256.104 165.531C255.099 166.382 253.841 167.044 252.338 167.525C250.831 168 249.097 168.24 247.12 168.24H237.532L237.534 168.239ZM243.659 166.866C244.977 167.129 246.106 167.259 247.036 167.259C248.246 167.259 249.375 167.057 250.416 166.659C251.454 166.261 252.356 165.694 253.113 164.958C253.875 164.219 254.474 163.325 254.906 162.278C255.338 161.226 255.554 160.05 255.554 158.743C255.554 157.427 255.338 156.245 254.911 155.198C254.484 154.145 253.89 153.252 253.123 152.513C252.356 151.778 251.443 151.211 250.385 150.817C249.32 150.423 248.165 150.226 246.906 150.226C246.43 150.226 245.923 150.26 245.388 150.332C244.848 150.403 244.27 150.504 243.659 150.634V166.864V166.866ZM274.989 167.72V168.239H265.784V167.72H266.545C267.447 167.72 268.09 167.489 268.485 167.029C268.738 166.741 268.863 166.014 268.863 164.862V152.537C268.863 152.086 268.852 151.721 268.83 151.437C268.808 151.159 268.77 150.924 268.711 150.742C268.652 150.559 268.571 150.415 268.458 150.314C268.349 150.208 268.198 150.112 268.005 150.015C267.54 149.79 267.054 149.68 266.546 149.68H265.784V149.161H274.989V149.68H274.217C273.33 149.68 272.693 149.91 272.304 150.371C272.04 150.659 271.91 151.38 271.91 152.537V164.862C271.91 165.313 271.921 165.679 271.943 165.961C271.964 166.24 272.003 166.471 272.062 166.649C272.121 166.827 272.207 166.971 272.321 167.081C272.434 167.187 272.592 167.287 272.78 167.383C273.233 167.609 273.709 167.72 274.217 167.72H274.989H274.989ZM292.192 148.728C294.963 148.728 297.372 149.67 299.419 151.557C301.467 153.431 302.487 155.774 302.487 158.589C302.487 161.485 301.461 163.887 299.402 165.804C297.35 167.715 294.86 168.671 291.937 168.671C288.977 168.671 286.492 167.74 284.488 165.871C282.483 164.008 281.484 161.592 281.484 158.628C281.484 155.602 282.646 153.129 284.963 151.216C286.979 149.56 289.387 148.729 292.191 148.729L292.192 148.728ZM291.889 149.766C290.809 149.766 289.842 149.972 288.999 150.385C288.157 150.794 287.449 151.384 286.876 152.148C286.303 152.911 285.866 153.834 285.563 154.92C285.266 156.01 285.116 157.225 285.116 158.575C285.116 159.915 285.262 161.139 285.559 162.254C285.851 163.367 286.288 164.325 286.86 165.126C287.433 165.928 288.14 166.548 288.983 166.995C289.827 167.442 290.804 167.662 291.906 167.662C292.9 167.662 293.818 167.494 294.666 167.158C295.514 166.822 296.249 166.297 296.87 165.593C297.491 164.882 297.977 163.984 298.328 162.888C298.679 161.788 298.858 160.482 298.858 158.969C298.858 157.514 298.712 156.222 298.426 155.083C298.134 153.944 297.696 152.984 297.113 152.197C296.53 151.408 295.801 150.809 294.931 150.391C294.067 149.972 293.051 149.766 291.889 149.766V149.766Z" fill="#373435"/>
</svg>
